:version 1.10
:name ASF
:units
  mass 1
  length 1
  angle deg
:documentation
  ASF file generated by Kaydara
:root
  axis xyz
  order  tx ty tz rx ry rz
  position 0 0 0
  orientation 0 0 0
:bonedata
  begin
    id 1
    name lfemurDummy
    direction 0.61522 -0.761478 0.204097
    length 5.68318
    axis 0 -0 0 xyz
  end
  begin
    id 2
    name lfemur
    direction 0.34202 -0.939693 -5.84747e-008
    length 16.9147
    axis 0 -0 20 xyz
    dof rx ry rz
    limits( -inf , inf )
( -inf , inf )
( -inf , inf )

  end
  begin
    id 3
    name ltibia
    direction 0.34202 -0.939693 1.20839e-009
    length 18.0532
    axis 0 -0 20 xyz
    dof rz ry rx
    limits( -inf , inf )
( -inf , inf )
( -inf , inf )

  end
  begin
    id 4
    name lfoot
    direction 0.0841971 -0.23133 0.969225
    length 5.23822
    axis -90 7.62852e-016 20 xyz
    dof ry rx rz
    limits( -inf , inf )
( -inf , inf )
( -inf , inf )

  end
  begin
    id 5
    name ltoes
    direction 0 0 0
    length 0
    axis 0 0 0 xyz
    dof rz ry rx
    limits( -inf , inf )
( -inf , inf )
( -inf , inf )

  end
  begin
    id 6
    name rfemurDummy
    direction -0.625247 -0.75382 0.202044
    length 5.74091
    axis 0 -0 0 xyz
  end
  begin
    id 7
    name rfemur
    direction -0.34202 -0.939693 -1.47013e-008
    length 16.4922
    axis 0 -0 -20 xyz
    dof rx ry rz
    limits( -inf , inf )
( -inf , inf )
( -inf , inf )

  end
  begin
    id 8
    name rtibia
    direction -0.34202 -0.939693 -7.74345e-010
    length 18.2421
    axis 0 -0 -20 xyz
    dof rz ry rx
    limits( -inf , inf )
( -inf , inf )
( -inf , inf )

  end
  begin
    id 9
    name rfoot
    direction -0.124331 -0.341598 0.931586
    length 5.45787
    axis -90 -7.62852e-016 -20 xyz
    dof ry rx rz
    limits( -inf , inf )
( -inf , inf )
( -inf , inf )

  end
  begin
    id 10
    name rtoes
    direction 0 0 0
    length 0
    axis 0 0 0 xyz
    dof rz ry rx
    limits( -inf , inf )
( -inf , inf )
( -inf , inf )

  end
  begin
    id 11
    name lowerbackDummy
    direction 0 0 0
    length 0
    axis 0 -0 0 xyz
  end
  begin
    id 12
    name lowerback
    direction -0.0218484 0.994884 -0.0986304
    length 4.45607
    axis 0 -0 0 xyz
    dof rx ry rz
    limits( -inf , inf )
( -inf , inf )
( -inf , inf )

  end
  begin
    id 13
    name upperback
    direction -0.00973057 0.999717 -0.0217111
    length 4.47449
    axis 0 -0 0 xyz
    dof rx ry rz
    limits( -inf , inf )
( -inf , inf )
( -inf , inf )

  end
  begin
    id 14
    name thorax
    direction -0.000928171 0.999699 0.0245198
    length 4.50973
    axis 0 -0 0 xyz
    dof rx ry rz
    limits( -inf , inf )
( -inf , inf )
( -inf , inf )

  end
  begin
    id 15
    name rclavicle
    direction -0.9009 0.425937 -0.0834055
    length 7.28587
    axis 0 -0 0 xyz
    dof rx ry rz
    limits( -inf , inf )
( -inf , inf )
( -inf , inf )

  end
  begin
    id 16
    name rhumerus
    direction -1 -2.23604e-007 -1.42637e-007
    length 13.5704
    axis 180 30 90 xyz
    dof rx ry rz
    limits( -inf , inf )
( -inf , inf )
( -inf , inf )

  end
  begin
    id 17
    name rradius
    direction -1 5.68281e-008 -4.4952e-007
    length 8.06782
    axis 180 30 90 xyz
    dof rz ry rx
    limits( -inf , inf )
( -inf , inf )
( -inf , inf )

  end
  begin
    id 18
    name rwrist
    direction -1 1.51393e-007 1.38143e-007
    length 4.03391
    axis -90 -90 0 xyz
    dof rz rx ry
    limits( -inf , inf )
( -inf , inf )
( -inf , inf )

  end
  begin
    id 19
    name rthumb
    direction 0 0 0
    length 0
    axis 0 0 0 xyz
    dof ry rx rz
    limits( -inf , inf )
( -inf , inf )
( -inf , inf )

  end
  begin
    id 20
    name rhand
    direction -1 -3.34077e-007 -5.59631e-007
    length 1.29744
    axis -90 -90 0 xyz
    dof ry rx rz
    limits( -inf , inf )
( -inf , inf )
( -inf , inf )

  end
  begin
    id 21
    name rfingers
    direction 0 0 0
    length 0
    axis 0 0 0 xyz
    dof rz ry rx
    limits( -inf , inf )
( -inf , inf )
( -inf , inf )

  end
  begin
    id 22
    name lclavicle
    direction 0.940017 0.332249 -0.0773232
    length 8.29589
    axis 0 -0 0 xyz
    dof rx ry rz
    limits( -inf , inf )
( -inf , inf )
( -inf , inf )

  end
  begin
    id 23
    name lhumerus
    direction 1 7.41158e-008 -1.44768e-008
    length 12.0042
    axis 180 -30 -90 xyz
    dof rx ry rz
    limits( -inf , inf )
( -inf , inf )
( -inf , inf )

  end
  begin
    id 24
    name lradius
    direction 1 -1.32972e-007 3.10821e-007
    length 8.1902
    axis 180 -30 -90 xyz
    dof rz ry rx
    limits( -inf , inf )
( -inf , inf )
( -inf , inf )

  end
  begin
    id 25
    name lwrist
    direction 1 3.08957e-007 4.01394e-007
    length 4.09509
    axis -90 90 0 xyz
    dof rz rx ry
    limits( -inf , inf )
( -inf , inf )
( -inf , inf )

  end
  begin
    id 26
    name lthumb
    direction 0 0 0
    length 0
    axis 0 0 0 xyz
    dof ry rx rz
    limits( -inf , inf )
( -inf , inf )
( -inf , inf )

  end
  begin
    id 27
    name lhand
    direction 1 -1.64125e-007 -6.99514e-007
    length 1.37229
    axis -90 90 0 xyz
    dof ry rx rz
    limits( -inf , inf )
( -inf , inf )
( -inf , inf )

  end
  begin
    id 28
    name lfingers
    direction 0 0 0
    length 0
    axis 0 0 0 xyz
    dof rz ry rx
    limits( -inf , inf )
( -inf , inf )
( -inf , inf )

  end
  begin
    id 29
    name lowerneck
    direction -0.030798 0.998024 0.0547665
    length 3.93918
    axis 0 -0 0 xyz
    dof rx ry rz
    limits( -inf , inf )
( -inf , inf )
( -inf , inf )

  end
  begin
    id 30
    name upperneck
    direction 0.0531588 0.996611 -0.0627736
    length 3.95491
    axis 0 -0 0 xyz
    dof rx ry rz
    limits( -inf , inf )
( -inf , inf )
( -inf , inf )

  end
  begin
    id 31
    name head
    direction 0 0 0
    length 0
    axis 0 0 0 xyz
    dof rx ry rz
    limits( -inf , inf )
( -inf , inf )
( -inf , inf )

  end
:hierarchy
  begin
    root lfemurDummy rfemurDummy lowerbackDummy
    lfemurDummy lfemur
    lfemur ltibia
    ltibia lfoot
    lfoot ltoes
    rfemurDummy rfemur
    rfemur rtibia
    rtibia rfoot
    rfoot rtoes
    lowerbackDummy lowerback
    lowerback upperback
    upperback thorax
    thorax rclavicle lclavicle lowerneck
    rclavicle rhumerus
    rhumerus rradius
    rradius rwrist
    rwrist rthumb rhand
    rhand rfingers
    lclavicle lhumerus
    lhumerus lradius
    lradius lwrist
    lwrist lthumb lhand
    lhand lfingers
    lowerneck upperneck
    upperneck head
  end

:SAMPLES-PER-SECOND 30
:FULLY-SPECIFIED
:DEGREES
37
root  2.549044354 36.21133219 2.966111101 -17.02197266 9.658004761 5.689025879
lowerback  7.653220177 3.474819899 8.902310371
upperback  1.336730003 5.568570137 6.632969856
thorax  -2.721810102 2.720410109 1.404340029
lowerneck  -4.953710079 -1.328889966 -4.720870018
upperneck  17.60540009 -0.6272990108 -3.428169966
head  6.174990177 -0.8291630149 -0.341587007
lclavicle  0 -9.442270133e-015 7.951389973e-016
lhumerus  0.8386009932 -20.32900047 86.70839691
lradius  2.581786792e-031 -2.408987546e-031 136.9830017
lwrist  -7.062250077e-031 -1.765562519e-031 4.611169815
lhand  -1.496451383e-031 -27.76390076 20.11240005
lfingers  90 7.125020027 -90
lthumb  89.89689403 5.08795885 91.16245106
rclavicle  0 -9.442270133e-015 7.951389973e-016
rhumerus  17.05999947 25.01390076 -81.65969849
rradius  -2.578925576e-031 2.412050354e-031 136.9149933
rwrist  7.062250077e-031 -0 -7.704269886
rhand  -7.920061211e-032 -33.2840004 9.303460121
rfingers  -90 -7.125020027 -90
rthumb  -92.93752616 -24.25625642 -97.11982154
rfemur  8.628430367 10.68010044 9.24339962
rtibia  -0 0 69.32710266
rfoot  -9.351207568e-032 -19.26040077 -6.687260151
rtoes  5.373923086 19.29304026 -105.8922705
lfemur  -27.65110016 9.68476963 -20.81010056
ltibia  -0 0 71.05879974
lfoot  -0 -8.958000183 -7.458030224
ltoes  -4.250644065 -19.5611806 -102.515957
38
root  2.561000013 36.05333463 2.925311111 -17.09899902 9.800003052 5.87298584
lowerback  7.859980106 3.332950115 8.745889664
upperback  1.61864996 5.374720097 6.823329926
thorax  -2.581540108 2.63725996 1.700299978
lowerneck  -5.246709824 -1.346279979 -4.786880016
upperneck  17.43029976 -0.6466370225 -3.360769987
head  6.171239853 -0.8375200033 -0.3118030131
lclavicle  0 -9.442270133e-015 7.951389973e-016
lhumerus  0.7897430062 -20.37330055 86.93579865
lradius  2.603002289e-031 -2.386047594e-031 137.4900055
lwrist  -1.412450015e-030 -1.765562519e-031 4.423500061
lhand  -1.496451383e-031 -27.76390076 20.11240005
lfingers  90 7.125020027 -90
lthumb  89.89689403 5.08795885 91.16245106
rclavicle  0 -9.442270133e-015 7.951389973e-016
rhumerus  17.71910095 24.97830009 -82.04219818
rradius  -2.585567481e-031 2.40492928e-031 137.072998
rwrist  7.062250077e-031 -1.765562519e-031 -7.808810234
rhand  -7.920061211e-032 -33.2840004 9.303460121
rfingers  -90 -7.125020027 -90
rthumb  -92.93752616 -24.25625642 -97.11982154
rfemur  9.016449928 11.06410027 9.226819992
rtibia  -0 0 69.45839691
rfoot  -4.710666784e-032 -20.44589996 -6.452260017
rtoes  5.373923086 19.29304026 -105.8922705
lfemur  -27.75900078 9.089400291 -20.50139999
ltibia  -0 0 71.53089905
lfoot  -0 -9.64743042 -6.737810135
ltoes  -4.250644065 -19.5611806 -102.515957
39
root  2.585044433 35.9044443 2.899711151 -17.11199951 9.746994019 6.117004395
lowerback  8.058549881 3.193559885 8.591810226
upperback  1.966060042 5.172389984 6.951109886
thorax  -2.359410048 2.551840067 1.934579968
lowerneck  -5.983779907 -1.361289978 -4.798049927
upperneck  17.54109955 -0.6127070189 -3.37770009
head  6.335130215 -0.834896028 -0.3190680146
lclavicle  0 -9.442270133e-015 7.951389973e-016
lhumerus  0.8948010206 -20.40439987 87.17009735
lradius  2.61632918e-031 -2.371426925e-031 137.8110046
lwrist  -7.062250077e-031 -1.765562519e-031 4.091050148
lhand  -1.496451383e-031 -27.76390076 20.11240005
lfingers  90 7.125020027 -90
lthumb  89.89689403 5.08795885 91.16245106
rclavicle  0 -9.442270133e-015 7.951389973e-016
rhumerus  18.34609985 24.93630028 -82.50859833
rradius  -2.596203327e-031 2.393443612e-031 137.3269958
rwrist  1.412450015e-030 -1.765562519e-031 -7.79253006
rhand  -7.920061211e-032 -33.2840004 9.303460121
rfingers  -90 -7.125020027 -90
rthumb  -92.93752616 -24.25625642 -97.11982154
rfemur  9.338870049 11.60159969 9.127340317
rtibia  -0 0 69.50879669
rfoot  -4.7501083e-032 -21.68610001 -6.141560078
rtoes  5.373923086 19.29304026 -105.8922705
lfemur  -27.68400002 8.390119553 -20.17819977
ltibia  -0 0 71.66760254
lfoot  8.975087641e-032 -10.39389992 -6.851469994
ltoes  -4.250644065 -19.5611806 -102.515957
40
root  2.615177725 35.7568876 2.870666699 -17.05999756 9.526992798 6.408996582
lowerback  8.358819962 3.098170042 8.522890091
upperback  2.05656004 5.06953001 6.916130066
thorax  -2.437119961 2.499599934 1.929090023
lowerneck  -5.914360046 -1.406290054 -4.590340137
upperneck  17.46619987 -0.7055929899 -3.41121006
head  6.297100067 -0.8674129844 -0.3697000146
lclavicle  0 -9.442270133e-015 7.951389973e-016
lhumerus  0.556566 -20.71369934 87.44480133
lradius  2.627474723e-031 -2.359071983e-031 138.0809937
lwrist  -1.059337512e-030 -0 3.74815011
lhand  -1.496451383e-031 -27.76390076 20.11240005
lfingers  90 7.125020027 -90
lthumb  89.89689403 5.08795885 91.16245106
rclavicle  0 -9.442270133e-015 7.951389973e-016
rhumerus  18.22100067 24.78079987 -83.36840057
rradius  -2.610858709e-031 2.377448388e-031 137.6790009
rwrist  1.412450015e-030 -1.765562519e-031 -7.545129776
rhand  -7.920061211e-032 -33.2840004 9.303460121
rfingers  -90 -7.125020027 -90
rthumb  -92.93752616 -24.25625642 -97.11982154
rfemur  9.565670013 12.2489996 8.936880112
rtibia  -0 0 69.49009705
rfoot  -4.795085797e-032 -22.99979973 -5.890749931
rtoes  5.373923086 19.29304026 -105.8922705
lfemur  -27.46689987 7.679510117 -19.85779953
ltibia  -0 0 71.45809937
lfoot  -0 -11.18929958 -7.517789841
ltoes  -4.250644065 -19.5611806 -102.515957
41
root  2.644555587 35.60533298 2.819888798 -16.90002441 9.115997314 6.71697998
lowerback  8.723210335 3.047339916 8.484600067
upperback  1.937250018 5.055180073 6.802830219
thorax  -2.758780003 2.479150057 1.806419969
lowerneck  -5.142730236 -1.412320018 -4.41012001
upperneck  17.25429916 -0.8214169741 -3.252929926
head  6.09360981 -0.887567997 -0.3499270082
lclavicle  0 -9.442270133e-015 7.951389973e-016
lhumerus  -0.1856469959 -21.19309998 87.84420013
lradius  2.635775894e-031 -2.349793496e-031 138.2830048
lwrist  -3.531125038e-031 -1.765562519e-031 3.338010073
lhand  -1.496451383e-031 -27.76390076 20.11240005
lfingers  90 7.125020027 -90
lthumb  89.89689403 5.08795885 91.16245106
rclavicle  0 -9.442270133e-015 7.951389973e-016
rhumerus  17.58259964 24.62100029 -84.37539673
rradius  -2.625745049e-031 2.36099703e-031 138.0390015
rwrist  7.062250077e-031 -0 -7.201479912
rhand  -7.920061211e-032 -33.2840004 9.303460121
rfingers  -90 -7.125020027 -90
rthumb  -92.93752616 -24.25625642 -97.11982154
rfemur  9.584469795 12.94579983 8.645259857
rtibia  -0 0 69.42839813
rfoot  -4.842993565e-032 -24.30039978 -5.683070183
rtoes  5.373923086 19.29304026 -105.8922705
lfemur  -27.24530029 7.08427 -19.52440071
ltibia  -0 0 71
lfoot  -0 -11.73840046 -8.957300186
ltoes  -4.250644065 -19.5611806 -102.515957
